<?xml version="1.0" encoding="utf-8"?>
<!-- Generator: Adobe Illustrator 27.8.1, SVG Export Plug-In . SVG Version: 6.00 Build 0)  -->
<svg version="1.1" id="Layer_1" xmlns="http://www.w3.org/2000/svg" xmlns:xlink="http://www.w3.org/1999/xlink" x="0px" y="0px"
	 viewBox="0 0 79.1 83" style="enable-background:new 0 0 79.1 83;" xml:space="preserve">
<path d="M0,73.1c0,0.8,0.7,1.5,1.5,1.5h23.7l2.3,1.7l7.9,5.8c0.8,0.6,1.8,0.9,2.7,0.9c1.4,0,2.8-0.6,3.7-1.8
	c0.3-0.4,0.6-0.9,0.7-1.5c0.6,0.3,1.3,0.5,2,0.5c0.2,0,0.5,0,0.7-0.1c1.2-0.2,2.3-0.8,3-1.8c0.3-0.4,0.6-0.9,0.7-1.5
	c0.7,0.3,1.4,0.5,2.1,0.5c1.4,0,2.8-0.6,3.7-1.8c0.2-0.3,0.4-0.7,0.5-1h22.4c0.8,0,1.5-0.7,1.5-1.5V16.3c0,0,0-0.1,0-0.1
	c0,0,0-0.1,0-0.1c0-0.1,0-0.2-0.1-0.3c0,0,0,0,0,0c-0.1-0.1-0.1-0.2-0.2-0.3c0,0,0,0,0,0L67.2,0.6C66.9,0.2,66.4,0,66,0H45.4H33.7
	H13.1c-0.5,0-0.9,0.2-1.2,0.6L0.3,15.4c0,0,0,0,0,0c-0.1,0.1-0.1,0.2-0.2,0.3c0,0,0,0,0,0C0.1,15.9,0,16,0,16.1c0,0,0,0.1,0,0.1
	c0,0,0,0.1,0,0.1C0,16.3,0,73.1,0,73.1z M3,71.6V58.1l8.2,6c0.3,0.2,0.6,0.3,0.9,0.3c0.1,0,0.1,0,0.2,0l0,0c0.3,0.6,0.7,1.1,1.3,1.5
	l7.6,5.6L3,71.6L3,71.6z M24.6,43.5C24.6,43.5,24.6,43.5,24.6,43.5l-11,14.9l-1.9,2.5L6,56.6l13.2-17.9L25,43L24.6,43.5z M50,74.1
	L47.2,72c0,0,0,0,0,0l-10.7-7.9c-0.7-0.5-1.6-0.3-2.1,0.3c-0.5,0.7-0.3,1.6,0.3,2.1l10.7,7.9c0.3,0.2,0.5,0.6,0.6,1
	c0.1,0.4,0,0.8-0.3,1.2s-0.6,0.6-1,0.6c-0.4,0.1-0.8,0-1.2-0.3L32.9,69c-0.7-0.5-1.6-0.3-2.1,0.3c-0.5,0.7-0.3,1.6,0.3,2.1l7.9,5.8
	c0.3,0.2,0.5,0.6,0.6,1c0.1,0.4,0,0.8-0.3,1.2c-0.5,0.7-1.5,0.8-2.2,0.3l-7.9-5.8L15.3,63.5c-0.3-0.2-0.5-0.6-0.6-1
	c-0.1-0.4,0-0.8,0.3-1.1l12-16.2c0.2-0.3,0.6-0.5,1-0.6l13.4-2c0.2,1.7-1.1,3.3-2.8,3.5L33.3,47c-0.6,0.1-1.1,0.5-1.2,1.1
	s0.1,1.2,0.6,1.6l9.4,7l10.7,7.9c0.3,0.2,0.5,0.6,0.6,1c0.1,0.4,0,0.8-0.3,1.2s-0.6,0.6-1,0.6c-0.4,0.1-0.8,0-1.2-0.3l-10.7-7.9
	c-0.7-0.5-1.6-0.3-2.1,0.3c-0.5,0.7-0.3,1.6,0.3,2.1L49,69.5l0,0l2.9,2.1c0.3,0.2,0.5,0.6,0.6,1c0,0,0,0.1,0,0.1c0,0.1,0,0.2,0,0.3
	c0,0,0,0.1,0,0.1c0,0.2-0.1,0.4-0.3,0.6C51.7,74.5,50.7,74.6,50,74.1z M76.1,71.6H55.3c-0.2-0.7-0.6-1.3-1.1-1.9
	c0.5-0.3,0.9-0.7,1.2-1.1c0.7-1,1-2.2,0.8-3.4s-0.8-2.3-1.8-3l-10.7-7.9l-6.5-4.8l1.8-0.3c1.7-0.2,3.1-1.1,4.1-2.5s1.4-3,1.2-4.7
	c-0.1-0.7-0.5-1.4-1.1-1.8s-1.3-0.6-2.1-0.5l-13,1.9c-0.1-0.1-0.1-0.1-0.2-0.2l-8.2-6.1c-0.7-0.5-1.6-0.3-2.1,0.3L3,55.5V17.8h26.7
	v12.8c0,0.5,0.3,1,0.8,1.3c0.5,0.3,1.1,0.2,1.5,0l7.6-4.7l7.6,4.7c0.2,0.2,0.5,0.2,0.8,0.2c0.2,0,0.5-0.1,0.7-0.2
	c0.5-0.3,0.8-0.8,0.8-1.3V17.8h26.7V71.6z M32.7,17.8h13.8v10.1l-6.1-3.8c-0.2-0.2-0.5-0.2-0.8-0.2S39,24,38.7,24.1l-6.1,3.8
	C32.7,27.9,32.7,17.8,32.7,17.8z M74.5,14.8H49.2L47.2,3h18.1L74.5,14.8z M44.1,3l2,11.8H32.9L35,3H44.1z M13.8,3h18.1l-2,11.8H4.6
	L13.8,3z"/>
</svg>
