<svg width="250" height="125" viewBox="0 0 250 125" fill="none" xmlns="http://www.w3.org/2000/svg">
<path fill-rule="evenodd" clip-rule="evenodd" d="M150.083 84.7961C138 93.7191 120.429 98.4836 105.321 98.4836C84.1372 98.4836 65.0643 90.6503 50.6372 77.617C49.5038 76.592 50.5184 75.1961 51.8788 75.992C67.4497 85.0545 86.7018 90.5024 106.587 90.5024C120 90.5024 134.754 87.7274 148.321 81.9691C150.371 81.0982 152.083 83.3107 150.079 84.7982M155.116 79.0399C153.575 77.0607 144.908 78.1066 140.987 78.5691C139.8 78.7149 139.618 77.6795 140.687 76.9357C147.604 72.0649 158.958 73.4711 160.285 75.1024C161.612 76.7336 159.941 88.1232 153.439 93.5566C152.439 94.3899 151.489 93.9461 151.933 92.8399C153.391 89.1941 156.666 81.0253 155.116 79.0399Z" fill="white"/>
<path fill-rule="evenodd" clip-rule="evenodd" d="M141.259 42.5568V37.8234C141.255 37.665 141.283 37.5073 141.341 37.36C141.4 37.2127 141.488 37.0789 141.6 36.9668C141.712 36.8547 141.846 36.7666 141.993 36.7079C142.141 36.6493 142.298 36.6212 142.457 36.6255H163.648C164.328 36.6255 164.873 37.1151 164.873 37.8234V41.8755C164.865 42.5547 164.29 43.4443 163.278 44.8505L152.298 60.5297C156.382 60.4297 160.686 61.038 164.386 63.1234C165.219 63.5943 165.428 64.2839 165.511 64.9651V70.0172C165.511 70.7047 164.748 71.513 163.948 71.0964C157.428 67.6797 148.767 67.3047 141.559 71.1318C140.823 71.5318 140.053 70.7318 140.053 70.0443V65.2464C140.053 64.4755 140.061 63.163 140.832 61.9901L153.555 43.7443H142.503C141.823 43.7443 141.278 43.2651 141.278 42.5568M63.9484 72.0943H57.5026C56.8859 72.0484 56.3984 71.5859 56.3505 70.9964V37.9047C56.3505 37.2422 56.9047 36.7172 57.5922 36.7172H63.6047C64.2297 36.7443 64.7297 37.2255 64.7755 37.8214V42.1464H64.8943C66.463 37.9651 69.4109 36.0151 73.3818 36.0151C77.4172 36.0151 79.938 37.9651 81.7526 42.1464C83.3151 37.9651 86.8568 36.0151 90.6589 36.0151C93.3609 36.0151 96.3172 37.1297 98.1214 39.6339C100.163 42.4172 99.7464 46.463 99.7464 50.0089L99.7318 70.8964C99.7318 71.5589 99.1776 72.0943 98.4901 72.0943H92.0318C91.4068 72.0484 90.8714 71.5318 90.8714 70.8964V53.3339C90.8714 51.938 90.9964 48.4547 90.6901 47.1318C90.2109 44.9109 88.7672 44.2839 86.8984 44.2839C85.3359 44.2839 83.7068 45.3255 83.0443 46.9964C82.3818 48.6672 82.4464 51.4589 82.4464 53.3359V70.8776C82.4464 71.5401 81.8922 72.0755 81.2047 72.0755H74.7464C74.0943 72.0297 73.5859 71.513 73.5859 70.8776L73.5776 53.3359C73.5776 49.6443 74.1859 44.2109 69.6047 44.2109C64.9714 44.2109 65.1526 49.5068 65.1526 53.3359V70.8776C65.1526 71.5401 64.5984 72.0755 63.9109 72.0755M183.119 36.0422C192.686 36.0422 197.865 44.2589 197.865 54.7047C197.865 64.7984 192.142 72.8047 183.119 72.8047C173.744 72.8047 168.609 64.588 168.609 54.3505C168.609 44.0484 173.788 36.0172 183.119 36.0172M183.173 42.7734C178.423 42.7734 178.121 49.2484 178.121 53.2839C178.121 57.3193 178.059 65.9609 183.117 65.9609C188.113 65.9609 188.351 58.9964 188.351 54.7526C188.351 51.9609 188.232 48.6214 187.392 45.9734C186.667 43.6693 185.226 42.7714 183.176 42.7714M210.273 72.0943H203.853C203.228 72.0484 202.692 71.5318 202.692 70.8964L202.684 37.7964C202.738 37.188 203.273 36.7172 203.926 36.7172H209.905C210.467 36.7443 210.93 37.1255 211.057 37.6422V42.7047H211.176C212.98 38.1797 215.509 36.0214 219.963 36.0214C222.88 36.0214 225.676 37.063 227.49 39.9214C229.157 42.5672 229.157 47.0214 229.157 50.2234V71.0568C229.084 71.6401 228.548 72.0984 227.915 72.0984H221.461C220.871 72.0526 220.382 71.6193 220.319 71.0568V53.0839C220.319 49.4651 220.736 44.1672 216.284 44.1672C214.715 44.1672 213.273 45.2193 212.534 46.813C211.628 48.8339 211.509 50.8484 211.509 53.0797V70.9005C211.501 71.563 210.938 72.0984 210.248 72.0984M124.363 56.2651C124.363 58.7776 124.426 60.8484 123.155 63.1026C122.13 64.9151 120.498 66.0318 118.692 66.0318C116.217 66.0318 114.765 64.1464 114.765 61.3609C114.765 55.8651 119.69 54.8672 124.359 54.8672V56.263M130.859 71.9797C130.432 72.3609 129.817 72.388 129.338 72.1339C127.198 70.3568 126.809 69.5297 125.638 67.8359C122.101 71.4443 119.59 72.5234 115.009 72.5234C109.578 72.5234 105.359 69.1776 105.359 62.4755C105.359 57.2422 108.188 53.6797 112.234 51.938C115.734 50.3964 120.621 50.1255 124.359 49.6984V48.8651C124.359 47.3318 124.478 45.5193 123.567 44.1943C122.788 43.0068 121.282 42.5172 119.948 42.5172C117.49 42.5172 115.303 43.7776 114.769 46.3922C114.661 46.9755 114.234 47.5443 113.644 47.5714L107.394 46.9005C106.869 46.7818 106.28 46.3589 106.436 45.5464C107.869 37.963 114.728 35.6797 120.853 35.6797C123.99 35.6797 128.09 36.513 130.565 38.888C133.703 41.8172 133.403 45.7255 133.403 49.9797V60.0276C133.403 63.0484 134.653 64.3714 135.834 66.0068C136.242 66.5901 136.334 67.2859 135.807 67.7214L130.878 72.0214L130.869 72.0005M39.8359 56.2859C39.8359 58.7984 39.8984 60.8693 38.6276 63.1234C37.6026 64.9359 35.9818 66.0526 34.1651 66.0526C31.6901 66.0526 30.2484 64.1672 30.2484 61.3818C30.2484 55.8859 35.1734 54.888 39.8318 54.888V56.2839M46.3318 72.0005C45.9047 72.3818 45.2901 72.4089 44.8109 72.1547C42.6714 70.3776 42.3109 69.5505 41.1109 67.8568C37.5734 71.4651 35.0693 72.5443 30.4818 72.5443C25.0609 72.5464 20.8359 69.2005 20.8359 62.5005C20.8359 57.2672 23.6734 53.7047 27.7109 51.963C31.2109 50.4214 36.0984 50.1505 39.8359 49.7234V48.8901C39.8359 47.3568 39.9547 45.5443 39.0568 44.2193C38.2651 43.0318 36.7651 42.5422 35.438 42.5422C32.9797 42.5422 30.7859 43.8026 30.2297 46.4172C30.1214 47.0005 29.6943 47.5693 29.1151 47.5964L22.8568 46.9255C22.3318 46.8068 21.7526 46.3839 21.8984 45.5714C23.3401 37.988 30.1901 35.7047 36.3151 35.7047C39.4526 35.7047 43.5526 36.538 46.0276 38.913C49.1651 41.8422 48.8651 45.7505 48.8651 50.0047V60.0526C48.8651 63.0734 50.1151 64.3964 51.2964 66.0318C51.713 66.6151 51.8047 67.3109 51.2755 67.7464L46.3589 72.0214L46.338 72.0005" fill="white"/>
</svg>
