<?xml version="1.0" encoding="utf-8"?>
<!-- Generator: Adobe Illustrator 27.8.1, SVG Export Plug-In . SVG Version: 6.00 Build 0)  -->
<svg version="1.1" id="Layer_1" xmlns="http://www.w3.org/2000/svg" xmlns:xlink="http://www.w3.org/1999/xlink" x="0px" y="0px"
	 viewBox="0 0 1920 1080" style="enable-background:new 0 0 1920 1080;" xml:space="preserve">
<style type="text/css">
	.st0{fill:#052A42;}
	.st1{fill-rule:evenodd;clip-rule:evenodd;fill:#052A42;}
</style>
<rect y="218" class="st0" width="1920" height="641"/>
<path class="st1" d="M1920,1080l-80-35c-80-34-240-104-400-121s-320,17-480,52s-320,69-480,69s-320-34-400-52L0,976V717h80
	c80,0,240,0,400,0s320,0,480,0s320,0,480,0s320,0,400,0h80V1080z"/>
<path class="st1" d="M0,0l80,35c80,34,240,104,400,121s320-17,480-52s320-69,480-69s320,34,400,52l80,17v259h-80c-80,0-240,0-400,0
	s-320,0-480,0s-320,0-480,0s-320,0-400,0H0V0z"/>
</svg>
