<svg width="100" height="100" viewBox="0 0 100 100" fill="none" xmlns="http://www.w3.org/2000/svg">
<path d="M50.002 8.29688C34.4961 8.29688 21.8828 20.9094 21.8828 36.416C21.8828 50.5069 35.2861 73.4502 43.277 85.8694C44.7613 88.1695 47.2737 89.5475 50.0019 89.5475C52.7301 89.5475 55.2457 88.1725 56.7268 85.8694C64.7174 73.4477 78.121 50.5069 78.121 36.416C78.121 20.9094 65.5085 8.29688 50.0018 8.29688H50.002ZM54.099 84.1777C52.2676 87.0276 47.7396 87.0276 45.9082 84.1777C38.1019 72.0435 25.0082 49.706 25.0082 36.4152C25.0082 22.6335 36.2207 11.421 50.0024 11.421C63.7841 11.421 74.9966 22.6335 74.9966 36.4152C74.9966 49.7052 61.9057 72.046 54.0999 84.1777H54.099Z" fill="#008BE6"/>
<path d="M49.9984 19.6953C40.7768 19.6953 33.2734 27.1953 33.2734 36.4203C33.2734 45.6386 40.7734 53.142 49.9984 53.142C59.2234 53.142 66.7234 45.642 66.7234 36.4203C66.7234 27.1953 59.2205 19.6953 49.9984 19.6953ZM49.9984 50.0136C42.5017 50.0136 36.3984 43.9137 36.3984 36.417C36.3984 28.9202 42.4984 22.817 49.9984 22.817C57.4985 22.817 63.5984 28.9169 63.5984 36.417C63.5984 43.9141 57.4953 50.0136 49.9984 50.0136Z" fill="#008BE6"/>
</svg>
