<svg width="110" height="110" viewBox="0 0 110 110" fill="none" xmlns="http://www.w3.org/2000/svg">
<path d="M10.3125 45.8621C11.2614 45.8621 12.0312 45.0923 12.0312 44.1434V27.1172H38.61C39.5589 27.1172 40.3288 26.3473 40.3288 25.3984C40.3288 24.4495 39.5589 23.6797 38.61 23.6797H10.3125C9.36357 23.6797 8.59375 24.4495 8.59375 25.3984V44.1434C8.59375 45.0923 9.3636 45.8621 10.3125 45.8621Z" fill="#008BE6"/>
<path d="M99.6881 23.6797H71.3906C70.4417 23.6797 69.6719 24.4495 69.6719 25.3984C69.6719 26.3474 70.4417 27.1172 71.3906 27.1172H97.9694V44.1434C97.9694 45.0923 98.7392 45.8621 99.6881 45.8621C100.637 45.8621 101.407 45.0922 101.407 44.1434V25.3984C101.407 24.4463 100.637 23.6797 99.6881 23.6797Z" fill="#008BE6"/>
<path d="M10.3125 86.3152H38.61C39.5589 86.3152 40.3288 85.5454 40.3288 84.5965C40.3288 83.6475 39.5589 82.8777 38.61 82.8777H12.0312V65.8516C12.0312 64.9026 11.2614 64.1328 10.3125 64.1328C9.3636 64.1328 8.59375 64.9027 8.59375 65.8516V84.5965C8.59375 85.5486 9.3636 86.3152 10.3125 86.3152Z" fill="#008BE6"/>
<path d="M99.6881 64.1406C98.7392 64.1406 97.9694 64.9105 97.9694 65.8594V82.8855H71.3906C70.4417 82.8855 69.6719 83.6554 69.6719 84.6043C69.6719 85.5532 70.4417 86.323 71.3906 86.323H99.6881C100.637 86.323 101.407 85.5532 101.407 84.6043V65.8594C101.407 64.9104 100.637 64.1406 99.6881 64.1406Z" fill="#008BE6"/>
<path d="M19.8125 33.2344C18.8636 33.2344 18.0938 34.0042 18.0938 34.9531V75.0481C18.0938 75.9971 18.8636 76.7669 19.8125 76.7669H29.8674C30.8164 76.7669 31.5862 75.997 31.5862 75.0481V34.9531C31.5862 34.0042 30.8163 33.2344 29.8674 33.2344H19.8125Z" fill="#008BE6"/>
<path d="M39.9219 33.2344C38.9729 33.2344 38.2031 34.0042 38.2031 34.9531V75.0481C38.2031 75.9971 38.973 76.7669 39.9219 76.7669H49.9731C50.9221 76.7669 51.6919 75.997 51.6919 75.0481V34.9531C51.6919 34.0042 50.922 33.2344 49.9731 33.2344H39.9219Z" fill="#008BE6"/>
<path d="M58.3047 34.9531V75.0481C58.3047 75.9971 59.0745 76.7669 60.0234 76.7669C60.9724 76.7669 61.7422 75.997 61.7422 75.0481V34.9531C61.7422 34.0042 60.9723 33.2344 60.0234 33.2344C59.0749 33.2344 58.3047 34.0042 58.3047 34.9531Z" fill="#008BE6"/>
<path d="M70.0778 76.7669H80.129C81.0779 76.7669 81.8478 75.997 81.8478 75.0481L81.8481 34.9531C81.8481 34.0042 81.0783 33.2344 80.1294 33.2344H70.0781C69.1292 33.2344 68.3594 34.0042 68.3594 34.9531V75.0481C68.359 75.9971 69.1257 76.7669 70.0778 76.7669Z" fill="#008BE6"/>
<path d="M91.9062 75.0481V34.9531C91.9062 34.0042 91.1364 33.2344 90.1875 33.2344C89.2386 33.2344 88.4688 34.0042 88.4688 34.9531V75.0481C88.4688 75.9971 89.2386 76.7669 90.1875 76.7669C91.1361 76.7669 91.9062 75.997 91.9062 75.0481Z" fill="#008BE6"/>
</svg>
