<svg width="100" height="100" viewBox="0 0 100 100" fill="none" xmlns="http://www.w3.org/2000/svg">
<path d="M39.5625 47.2426V24.0859C39.5625 23.2233 38.8626 22.5234 38 22.5234C37.1374 22.5234 36.4375 23.2233 36.4375 24.0859V47.8893C36.4375 48.305 36.6032 48.7018 36.8939 48.9954L48.8881 60.9895C49.1944 61.2958 49.5944 61.4459 49.9941 61.4459C50.3942 61.4459 50.7943 61.2929 51.1002 60.9895C51.7096 60.3801 51.7096 59.3896 51.1002 58.7802L39.5625 47.2426Z" fill="#008BE6"/>
<path d="M37.9998 16.8438C20.8806 16.8438 6.95312 30.7721 6.95312 47.8904C6.95312 65.0087 20.8815 78.9337 37.9998 78.9337C55.1181 78.9337 69.0465 65.0054 69.0465 47.8871C69.0465 30.7687 55.1181 16.8438 37.9998 16.8438ZM37.9998 75.8096C22.6031 75.8096 10.0781 63.2846 10.0781 47.8879C10.0781 32.4913 22.6031 19.9696 37.9998 19.9696C53.3965 19.9696 65.9215 32.4946 65.9215 47.8912C65.9215 63.2879 53.3965 75.8096 37.9998 75.8096Z" fill="#008BE6"/>
<path d="M67.8319 24.6908C69.6601 22.8626 69.6601 19.8906 67.8319 18.0625C66.0071 16.2377 63.0289 16.2377 61.2037 18.0625L60.832 18.4343C55.5507 14.3282 49.3286 11.7435 42.6878 10.9124V10.1875H42.8909C45.4752 10.1875 47.5784 8.08433 47.5784 5.5C47.5784 2.91567 45.4752 0.8125 42.8909 0.8125H33.1067C30.5224 0.8125 28.4192 2.91567 28.4192 5.5C28.4192 8.08433 30.5224 10.1875 33.1067 10.1875H33.3131V10.9095C26.6725 11.7438 20.454 14.3252 15.169 18.4313L14.7972 18.0625C12.9724 16.2377 9.99413 16.2377 8.16897 18.0625C6.3408 19.8907 6.3408 22.8627 8.16897 24.6908L8.54071 25.0658C3.47821 31.5909 0.703125 39.6408 0.703125 47.8941C0.703451 68.4566 17.4348 85.1874 38.0006 85.1874C58.5665 85.1874 75.2973 68.4566 75.2973 47.8908C75.2973 39.6375 72.5222 31.5874 67.4597 25.0624L67.8319 24.6908ZM72.1724 47.8908C72.1724 66.7341 56.8408 82.0624 38.0008 82.0624C19.1608 82.0624 3.82911 66.7341 3.82911 47.8908C3.82911 39.894 6.67286 32.1033 11.8385 25.9533C12.3603 25.3345 12.3196 24.4188 11.748 23.8439L10.3792 22.4813C9.76982 21.8719 9.76982 20.8814 10.3792 20.2719C10.6852 19.9656 11.0853 19.8126 11.4853 19.8126C11.8853 19.8126 12.2854 19.9656 12.5914 20.269L13.9602 21.6379C14.5289 22.2157 15.454 22.2469 16.0634 21.7283C21.4507 17.2003 28.0009 14.4845 35.01 13.869C35.8193 13.8003 36.4381 13.1219 36.4381 12.3159V8.62518C36.4381 7.76251 35.7383 7.06268 34.8756 7.06268H33.11C32.2506 7.06268 31.5475 6.35955 31.5475 5.50018C31.5475 4.6408 32.2506 3.93768 33.11 3.93768H42.8941C43.7534 3.93768 44.4566 4.6408 44.4566 5.50018C44.4566 6.35955 43.7535 7.06268 42.8941 7.06268H41.1252C40.2625 7.06268 39.5627 7.76254 39.5627 8.62518V12.3159C39.5627 13.1252 40.1815 13.8036 40.9879 13.8723C47.9973 14.4849 54.5504 17.2004 59.9345 21.7316C60.5472 22.2472 61.472 22.2127 62.0439 21.6411L63.4127 20.2723C64.0221 19.6629 65.0126 19.6629 65.622 20.2723C66.2315 20.8816 66.2314 21.8722 65.622 22.4816L64.2532 23.8504C63.6783 24.4253 63.6406 25.341 64.1627 25.9598C69.3248 32.1063 72.1718 39.8973 72.1718 47.8906L72.1724 47.8908Z" fill="#008BE6"/>
</svg>
