<?xml version="1.0" encoding="UTF-8"?>
<svg fill="none" viewBox="0 0 134 182" xmlns="http://www.w3.org/2000/svg">
<path d="m67 181.63c36.825 0 66.788-29.957 66.788-66.782 0-35.768-28.293-64.975-63.663-66.625v-9.8371l4.3627-4.3627c1.8372 0.9935 3.9687 1.5625 6.2937 1.5625 0.8502 0 1.7121-0.069 2.6003-0.2064 4.1003-0.6497 8.2312-2.806 11.331-5.9063 9.181-9.181 9.007-25.337 8.994-26.025-0.032-1.681-1.388-3.0378-3.069-3.069-0.7003-0.03125-16.857-0.16862-26.019 8.9935-3.1003 3.1003-5.25 7.2312-5.9063 11.337-0.5248 3.306-0.0248 6.3996 1.3314 8.9128l-3.0437 3.0502-3.056-3.0502c3.1003-5.7435 1.3873-14.294-4.569-20.243-9.1875-9.194-25.343-9-26.025-8.9935-1.681 0.03125-3.0379 1.3874-3.069 3.069-0.0124 0.68099-0.1875 16.837 8.9935 26.025 4.0123 4.0065 9.1998 6.1126 13.919 6.1126 2.2879 0 4.4375-0.5436 6.3125-1.556l4.3692 4.3497v9.8372c-35.368 1.6497-63.657 30.857-63.657 66.625 0 36.825 29.957 66.782 66.782 66.782h-4e-4zm-55.613-42.919c1.3314 0.481 2.7688 0.869 4.4063 0.976 6.3002 0.406 9.4877 2.668 12.856 5.062 3.194 2.262 6.4935 4.606 11.875 4.85 2.8562 0.176 5.1497-1.425 6.9753-2.675 2.5502-1.743 3.3562-2.081 4.7747-1.237 4.1185 2.449 6.8685 6.631 7.5378 11.468 0.5248 3.806 3.4129 5.931 5.9622 7.806 1.7377 1.275 3.3815 2.481 4.0813 4.025 0.5248 1.137 0.375 3.906 0.0124 6.256-0.9557 0.038-1.8997 0.138-2.8685 0.138-24.907 0-46.332-15.125-55.613-36.669h6e-4zm114.31-38.418c-2.199-1.6999-3.981-3.8437-5.662-6.0065-3.75-4.819-8.426-10.812-17.894-6.4252-3.55 1.6562-7.4998 1.8627-10.988 2.0437-4.3371 0.2311-8.4375 0.444-10.806 3.5625-2.194 2.8815-1.6497 6.8055-1.0501 9.5065 1.0625 4.8 8.0437 9.281 11.95 11.45l-0.7187 15.225-1.9877 3.975c-1.3939-4.75-3.1563-10.606-4.4128-14.231-1.9622-5.687-8.9687-5.5-16.375-5.319-5.431 0.15-11.6 0.3-15.188-1.887-1.7878-1.094-2-2.025-2.0748-2.337-0.4499-1.981 1.4752-4.962 2.8873-7.138 1.3997-2.162 2.4128-3.7249 2.2311-5.5497-0.2623-2.6752-2.5188-3.6752-4.4374-4.1563 1.3372-1.9252 2.3371-4.25 3.3059-6.5124 1.4812-3.444 3.0124-7.0065 5.431-8.5437 1.625-1.0312 3.931-1.1627 6.3815-1.3001 4.431-0.2565 9.9441-0.569 13.538-6.4935 3.1497-5.1998 1.0312-10.7-1.694-14.775 23.295 4.349 41.895 22.087 47.563 44.911zm-50.8-78.6c0.444-2.8313 1.9563-5.7121 4.1496-7.8996 5.1374-5.1374 13.637-6.5937 18.262-7.0065-0.4128 4.6185-1.8685 13.125-7.0065 18.262-2.194 2.1875-5.069 3.6999-7.8997 4.1497-1.4935 0.25-4.2688 0.3685-6.069-1.4375-1.806-1.806-1.6745-4.5748-1.4368-6.0683l7e-4 6e-4zm-31.193 3.3627c-5.1373-5.1373-6.5936-13.644-7.0065-18.262 4.625 0.41276 13.125 1.8685 18.262 7.0064 4.3627 4.3627 5.6563 11.019 2.7122 13.969-2.9369 2.9433-9.6055 1.6497-13.968-2.7128l8e-4 -7e-4zm23.3 29.257c0.7253 0 1.431 0.0814 2.1497 0.1061 1.8437 1.7623 7.9753 8.1127 5.3125 12.5-1.7937 2.9622-4.2878 3.2435-8.5437 3.4877-2.9876 0.1686-6.375 0.3685-9.375 2.2688-4.0436 2.5748-6.0501 7.2377-7.819 11.344-1.1562 2.681-2.2435 5.2121-3.5871 6.4753-1.7689 1.6563-2.4187 3.3437-1.9252 5.0123 0.7435 2.4935 3.3125 2.9812 5.2122 3.319-0.1062 0.1687-0.2123 0.3314-0.3125 0.4812-2.0124 3.1126-4.7747 7.3686-3.7377 11.926 0.5749 2.531 2.2312 4.643 4.9128 6.274 5.1564 3.144 12.312 2.962 18.6 2.8 3.681-0.081 9.8372-0.256 10.306 1.119 2.2937 6.613 6.4812 21.437 6.5247 21.587 0.3561 1.243 1.431 2.143 2.7187 2.262 0.1002 0.012 0.194 0.012 0.2936 0.012 1.1751 0 2.2623-0.663 2.7937-1.725l5.8626-11.719c0.194-0.387 0.306-0.812 0.3249-1.25l0.8503-17.863c0.0625-1.231-0.6127-2.382-1.7064-2.938-4.6127-2.343-10.05-6.274-10.475-8.181-0.7311-3.2933-0.194-4.2183-0.0814-4.3681 0.625-0.8125 3.694-0.9753 6.1628-1.1061 3.8504-0.1999 8.6438-0.4499 13.294-2.6127 4.719-2.181 6.337-0.5247 10.325 4.5937 2.774 3.5622 6.274 7.8432 12.05 10.043 0.243 2.2 0.387 4.426 0.387 6.688 0 30.218-22.281 55.262-51.268 59.743 0.2878-2.612 0.3503-5.887-0.7252-8.218-1.3815-3.007-3.8627-4.838-6.0625-6.457-2.056-1.512-3.319-2.512-3.4754-3.625-0.9251-6.737-4.7688-12.562-10.538-15.987-5.0123-2.976-8.9187-0.313-11.5 1.449-1.2188 0.832-2.4622 1.513-3.1628 1.588-3.5437-0.163-5.75-1.726-8.5437-3.707-3.5625-2.524-8-5.675-16.069-6.199-5.11-0.318-7.86-4.418-8.0287-4.68-1.056-4.475-1.6752-9.119-1.6752-13.913 0-33.375 27.157-60.532 60.532-60.532l-3e-4 0.0019z" fill="#008BE6"/>
</svg>