<?xml version="1.0" encoding="UTF-8"?>
<svg viewBox="0 0 168 182" xmlns="http://www.w3.org/2000/svg">
<path d="m161.84 94.85c-3.524-1.694-7.756-0.9688-10.512 1.806l-20.218 20.375c-1.45-0.313-2.982-0.275-4.45 0.137l-23.782 6.688c-10.113 2.843-17.175 12.168-17.175 22.675v31.968c0 1.725 1.3997 3.125 3.125 3.125h22.9c1.725 0 3.125-1.4 3.125-3.125v-17.282l26.857-13.381c0.543-0.269 0.993-0.688 1.306-1.213l22.775-38.843c2.688-4.538 0.806-10.65-3.949-12.931l-2e-3 6e-4zm-1.444 9.7743-22.3 38.044-27.75 13.824c-1.062 0.525-1.731 1.613-1.731 2.794v16.088h-16.65v-28.837c0-7.712 5.1875-14.569 12.625-16.656l23.782-6.687c1.712-0.519 3.55 0.687 3.8 2.481 0.181 1.312-0.493 2.569-1.694 3.144l-21.681 10.306c-1.556 0.737-2.219 2.606-1.476 4.162 0.731 1.556 2.606 2.219 4.163 1.476l21.675-10.306c3.675-1.744 5.762-5.625 5.194-9.65-0.219-1.6-0.863-3.1-1.825-4.356l19.239-19.387c0.887-0.894 2.237-1.1373 3.368-0.587 1.518 0.742 2.131 2.68 1.262 4.148l-1e-3 -1e-3z" fill="#008BE6"/>
<path d="m65.128 123.86-23.782-6.687c-1.4687-0.413-2.9935-0.45-4.4498-0.138l-20.218-20.375c-2.75-2.7746-6.9753-3.5188-10.512-1.806-4.75 2.3002-6.6373 8.3939-3.9498 12.931l22.78 38.837c0.3125 0.525 0.7623 0.944 1.306 1.212l26.857 13.382 7e-4 17.281c0 1.726 1.3997 3.125 3.125 3.125h22.9c1.7253 0 3.125-1.4 3.125-3.125v-31.961c0-10.507-7.0622-19.833-17.181-22.676zm10.931 51.512h-16.65v-16.087c0-1.181-0.6686-2.269-1.7312-2.794l-27.75-13.825-22.313-38.045c-0.86848-1.469-0.26888-3.419 1.2624-4.144 1.1497-0.5434 2.4876-0.306 3.3685 0.587l19.238 19.387c-0.9622 1.257-1.6061 2.75-1.8248 4.356-0.569 4.025 1.5189 7.907 5.194 9.65l21.675 10.306c1.5501 0.75 3.4251 0.087 4.1628-1.475 0.7435-1.556 0.0814-3.426-1.4753-4.163l-21.675-10.306c-1.194-0.575-1.875-1.832-1.694-3.144 0.25-1.781 2.0502-3.007 3.8002-2.481l23.782 6.687c7.431 2.087 12.625 8.944 12.625 16.657v28.833l0.0054 1e-3z" fill="#008BE6"/>
<path d="m86.21 78.431-5-5c-1.2187-1.2187-3.1998-1.2187-4.4186 0-1.125 1.125-1.1628 2.8627-0.2188 4.0872h-16.5c-1.1126 0-1.6627-0.7435-1.8436-1.0625-0.1875-0.3249-0.556-1.1751-0.0065-2.1315l6.0246-10.438c0.8685-1.4935 0.3561-3.4063-1.1439-4.2688-1.4876-0.8627-3.4063-0.3561-4.2688 1.1439l-6.0313 10.438c-1.5065 2.625-1.5065 5.7565 0.0065 8.3815 1.5123 2.625 4.2311 4.1875 7.2565 4.1875h16.5c-0.944 1.2252-0.9063 2.9686 0.2187 4.0871 0.6127 0.6127 1.4128 0.9128 2.2122 0.9128 0.8001 0 1.6003-0.306 2.2122-0.9128l5-5c1.207-1.1927 1.1883-3.2492 8e-4 -4.4244z" fill="#008BE6"/>
<path d="m96.14 44.45c1.4935-0.8627 2.0065-2.7689 1.1439-4.2689l-6.0246-10.438c-3.0247-5.25-11.488-5.25-14.512 0l-8.25 14.294c-0.5937-1.4251-2.125-2.2377-3.6496-1.8562-1.6752 0.4499-2.6629 2.1629-2.2122 3.8249l1.8313 6.8371v0.0065c0.431 1.5625 2.2565 2.6315 3.8249 2.2122l6.8371-1.8313c1.6752-0.4499 2.6629-2.1629 2.2122-3.8249-0.4186-1.5377-1.9063-2.4251-3.4375-2.2376l8.25-14.294c0.556-0.9616 1.4746-1.0742 1.8497-1.0742 0.375 0 1.2936 0.1126 1.8503 1.069l6.0247 10.438c0.8502 1.487 2.7622 1.9995 4.2622 1.1434z" fill="#008BE6"/>
<path d="m106.94 56.906c1.531 0.194 3.018-0.6998 3.437-2.2376 0.444-1.6687-0.544-3.375-2.212-3.8249l-6.837-1.8313c-1.794-0.5-3.1318 0.681-3.8316 2.2063l-1.8314 6.8314c-0.444 1.6751 0.5437 3.3815 2.2122 3.8313 0.2747 0.069 0.5436 0.1061 0.8125 0.1061 1.2565 0 2.3253-0.8248 2.8123-2.0065l8.275 14.344c0.556 0.9564 0.187 1.806 0 2.1315-0.181 0.319-0.731 1.0625-1.844 1.0625h-12.05c-1.7253 0-3.125 1.3997-3.125 3.125s1.3998 3.125 3.125 3.125h12.05c3.025 0 5.744-1.5625 7.257-4.1875 1.512-2.625 1.512-5.7565 0-8.3815l-8.25-14.294z" fill="#008BE6"/>
<path d="m141.63 72.606c16.493-16.5 16.493-43.343 0-59.832-7.994-8-18.618-12.4-29.913-12.4-10.294 0-20.026 3.6497-27.712 10.331-7.6875-6.6816-17.418-10.331-27.712-10.331-11.3 0-21.925 4.3997-29.913 12.394-16.494 16.494-16.494 43.337 0 59.832l55.413 55.414c0.6126 0.612 1.4128 0.913 2.2122 0.913 0.8001 0 1.6002-0.306 2.2121-0.913l55.412-55.408zm-110.83-4.4186c-14.056-14.062-14.056-36.937 0-50.993 6.8125-6.8125 15.863-10.562 25.493-10.562 9.6374 0 18.687 3.7565 25.5 10.562 1.1752 1.1752 3.25 1.1752 4.4187 0 6.8125-6.8125 15.863-10.562 25.5-10.562 9.632 0 18.682 3.7565 25.494 10.562 14.056 14.056 14.056 36.932 0 50.993l-53.2 53.2-53.205-53.2z" fill="#008BE6"/>
</svg>