<svg width="200" height="200" viewBox="0 0 200 200" fill="none" xmlns="http://www.w3.org/2000/svg">
<path d="M35.5863 15.6912C33.8806 15.3409 32.2366 16.4158 31.8864 18.1033C31.5362 19.7908 32.6117 21.447 34.2993 21.8032L45.9178 24.253C51.7426 25.4783 55.9614 30.684 55.9614 36.628V167.61C55.9614 167.666 55.9862 167.71 55.9927 167.759V170.659C55.9927 172.384 57.3924 173.784 59.1177 173.784H68.5364C69.955 179.84 75.3735 184.371 81.8612 184.371C88.3424 184.371 93.755 179.833 95.1802 173.784H129.005C130.424 179.84 135.842 184.371 142.33 184.371C148.811 184.371 154.224 179.833 155.649 173.784H165.068C166.793 173.784 168.193 172.384 168.193 170.659V150.427C168.193 148.702 166.793 147.302 165.068 147.302H157.924L157.925 78.3474C157.925 76.6221 156.525 75.2224 154.8 75.2224H144.218V29.3907C144.218 27.6654 142.818 26.2657 141.093 26.2657H83.1048C81.3795 26.2657 79.9798 27.6655 79.9798 29.3907V75.2224H69.3985C67.6732 75.2224 66.2735 76.6221 66.2735 78.3474V147.304L62.211 147.303V36.6284C62.211 27.7469 55.8985 19.9656 47.211 18.1351L35.5863 15.6912ZM81.8613 178.123C77.7486 178.123 74.3991 174.773 74.3991 170.661C74.3991 166.548 77.7494 163.204 81.8613 163.204C85.9739 163.204 89.3176 166.548 89.3176 170.661C89.3176 174.773 85.9739 178.123 81.8613 178.123ZM142.318 178.123C138.205 178.123 134.856 174.773 134.856 170.661C134.856 166.548 138.206 163.204 142.318 163.204C146.431 163.204 149.774 166.548 149.774 170.661C149.774 174.773 146.436 178.123 142.318 178.123ZM107.055 32.5162H117.117V42.9973L113.598 41.0475C112.667 40.5286 111.511 40.5286 110.574 41.0475L107.055 42.9973L107.055 32.5162ZM86.2179 32.5162H100.805V48.304C100.805 49.4101 101.392 50.4355 102.343 50.998C102.831 51.2858 103.381 51.429 103.93 51.429C104.449 51.429 104.974 51.2975 105.442 51.0351L112.086 47.3541L118.73 51.0351C119.692 51.5663 120.88 51.554 121.83 50.9915C122.78 50.429 123.368 49.4101 123.368 48.2975L123.368 32.5161H137.955V75.2228H86.2164L86.2179 32.5162ZM103.2 81.4728H120.981V97.0732L113.606 92.9918C112.669 92.4729 111.519 92.4729 110.582 92.9918L103.2 97.079L103.2 81.4728ZM72.5129 81.4728H96.9496V102.38C96.9496 103.486 97.5368 104.511 98.4874 105.074C99.4438 105.636 100.619 105.648 101.588 105.117L112.094 99.3046L122.594 105.117C123.556 105.642 124.744 105.636 125.695 105.074C126.644 104.511 127.232 103.492 127.232 102.38V81.4728H151.669V147.305L72.5106 147.304L72.5129 81.4728ZM62.2441 153.553H161.931V167.534H155.637C154.212 161.484 148.8 156.953 142.325 156.953C135.843 156.953 130.431 161.484 129.006 167.534H95.1806C93.7555 161.484 88.3434 156.953 81.8681 156.953C75.3869 156.953 69.9743 161.484 68.5491 167.534L62.2431 167.535L62.2441 153.553Z" fill="#008BE6"/>
</svg>
